<svg width="24.542" height="16" viewBox="0 0 6.493 4.233" xml:space="preserve" xmlns="http://www.w3.org/2000/svg"><path style="fill:#d2ff14;fill-opacity:1;stroke-width:.264999;stroke-linecap:round" d="M267.17 179.502a2.91 2.91 0 0 0-2.91 2.909v170.685a2.91 2.91 0 0 0 2.91 2.91h28.013a2.91 2.91 0 0 0 2.909-2.91v-95.007a.71.71 0 0 1 1.336-.323l45.962 88.564a4.788 4.788 0 0 0 4.245 2.586h24.092a4.788 4.788 0 0 0 4.245-2.586l45.963-88.564a.71.71 0 0 1 1.336.323v61.154a2.91 2.91 0 0 0 2.909 2.91h103.906a2.91 2.91 0 0 0 2.91-2.91V291.23a2.91 2.91 0 0 0-2.91-2.909h-70.075a2.91 2.91 0 0 1-2.91-2.909V182.411a2.91 2.91 0 0 0-2.908-2.91H428.18a4.654 4.654 0 0 0-4.18 2.608l-61.048 125.369a1.417 1.417 0 0 1-2.542 0l-61.047-125.369a4.654 4.654 0 0 0-4.18-2.607H267.17zm225.03 1.616a2.494 2.494 0 0 0-1.12.194 24.187 24.187 0 0 0-14.847 19.393 24.187 24.187 0 1 0 47.945.13 24.187 24.187 0 0 0-14.76-19.523c-1.46-.626-3.074.331-3.491 1.874l-1.832 6.465c-.417 1.543.498 3.13 1.875 3.922a11.676 11.676 0 0 1 5.494 7.218c.376 1.543.376 4.211 0 5.754a11.676 11.676 0 0 1-8.425 8.382 14.178 14.178 0 0 1-5.797 0 11.676 11.676 0 0 1-8.339-8.425 14.095 14.095 0 0 1 0-5.754 11.676 11.676 0 0 1 5.517-7.218c1.417-.793 2.334-2.338 1.917-3.922l-1.723-6.465c-.313-1.157-1.304-1.959-2.414-2.025zM428.18 339.09a2.91 2.91 0 0 0-2.91 2.909v11.097a2.91 2.91 0 0 0 2.91 2.91h103.906a2.91 2.91 0 0 0 2.91-2.91v-11.097a2.91 2.91 0 0 0-2.91-2.91H428.18z" transform="translate(-6.338 -4.305) scale(.02398)"/></svg>