<svg width="49" height="49" viewBox="0 0 49 49" fill="none" xmlns="http://www.w3.org/2000/svg">
<path d="M24.9032 0.819275C18.3624 0.819275 17.5425 0.860865 14.9737 0.966586C12.4103 1.08369 10.663 1.48484 9.13116 2.08053C7.54734 2.69585 6.19875 3.52309 4.85987 4.86216C3.52095 6.20123 2.70149 7.54257 2.0861 9.12641C1.49057 10.6585 1.08175 12.4131 0.964815 14.9768C0.847349 17.5457 0.817139 18.3658 0.817139 24.907C0.817139 31.4486 0.847339 32.2683 0.964815 34.8373C1.0819 37.401 1.49057 39.1484 2.0861 40.6805C2.70149 42.2643 3.52095 43.6056 4.85987 44.9447C6.19875 46.2838 7.54734 47.1103 9.13116 47.726C10.663 48.3213 12.4103 48.7304 14.9737 48.8475C17.5425 48.9646 18.3624 48.9872 24.9032 48.9872C31.4439 48.9872 32.2639 48.9495 34.8326 48.8475C37.3961 48.7304 39.1508 48.3213 40.6826 47.726C42.2664 47.1103 43.6076 46.2838 44.9465 44.9447C46.2854 43.6056 47.1048 42.2643 47.7202 40.6805C48.3158 39.1484 48.7246 37.401 48.8416 34.8373C48.959 32.2683 48.9892 31.4486 48.9892 24.907C48.9892 18.3658 48.959 17.5457 48.8416 14.9768C48.7245 12.4131 48.3158 10.6585 47.7202 9.12641C47.1048 7.54257 46.2854 6.20123 44.9465 4.86216C43.6076 3.52309 42.2664 2.69585 40.6826 2.08053C39.1508 1.48484 37.3961 1.08369 34.8326 0.966586C32.2639 0.849487 31.4439 0.819275 24.9032 0.819275ZM24.9032 5.15718C31.3338 5.15718 32.0938 5.19491 34.6334 5.29693C36.9815 5.4027 38.2626 5.80083 39.1113 6.1306C40.2355 6.56763 41.035 7.08815 41.8777 7.93088C42.7205 8.77361 43.2409 9.57327 43.6776 10.6974C44.0074 11.5462 44.4041 12.8275 44.5113 15.1754C44.6269 17.7153 44.6514 18.4757 44.6514 24.9066C44.6514 31.3379 44.625 32.0983 44.5113 34.6378C44.404 36.9862 44.0074 38.2599 43.6776 39.1087C43.2409 40.2328 42.7205 41.0393 41.8777 41.8824C41.035 42.7251 40.2355 43.2457 39.1113 43.6827C38.2626 44.0113 36.9815 44.4023 34.6334 44.5092C32.0942 44.6263 31.3344 44.6489 24.9032 44.6489C18.472 44.6489 17.7122 44.6112 15.1729 44.5092C12.8249 44.4034 11.5511 44.0124 10.7024 43.6827C9.57825 43.2457 8.7714 42.7251 7.9287 41.8824C7.08606 41.0393 6.56565 40.2328 6.12873 39.1087C5.79899 38.2599 5.40969 36.9862 5.30251 34.6378C5.18692 32.0983 5.16237 31.3379 5.16237 24.9066C5.16237 18.4757 5.18881 17.7153 5.30251 15.1754C5.40977 12.8275 5.79899 11.5462 6.12873 10.6974C6.56565 9.57327 7.08606 8.77361 7.9287 7.93088C8.7714 7.08815 9.57825 6.56763 10.7024 6.1306C11.5511 5.80197 12.8249 5.40421 15.1729 5.29693C17.7126 5.17984 18.4726 5.15718 24.9032 5.15718ZM37.7613 9.15587C36.1653 9.15587 34.8695 10.4515 34.8695 12.0478C34.8695 13.6441 36.1653 14.9397 37.7613 14.9397C39.3575 14.9397 40.6531 13.6441 40.6531 12.0478C40.6531 10.4515 39.3575 9.15587 37.7613 9.15587ZM24.9032 12.5347C18.073 12.5347 12.5393 18.0765 12.5393 24.907C12.5393 31.738 18.073 37.2718 24.9032 37.2718C31.7334 37.2718 37.2744 31.738 37.2744 24.907C37.2744 18.0765 31.7334 12.5347 24.9032 12.5347ZM24.9032 16.8802C29.3369 16.8802 32.9294 20.4732 32.9294 24.907C32.9294 29.3412 29.3369 32.9339 24.9032 32.9339C20.4695 32.9339 16.877 29.3412 16.877 24.907C16.877 20.4732 20.4695 16.8802 24.9032 16.8802Z" fill="#D2FF14"/>
</svg>
