<svg width="48" height="48" viewBox="0 0 48 48" fill="none" xmlns="http://www.w3.org/2000/svg">
<g clip-path="url(#clip0_43_352)">
<path d="M1.91602 16.1553H11.4629V46.8629H1.91602V16.1553ZM6.68973 0.891113C9.74104 0.891113 12.2208 3.37085 12.2208 6.42727C12.2208 9.48063 9.74104 11.9604 6.68973 11.9604C3.63126 11.9604 1.15869 9.48063 1.15869 6.42727C1.15869 3.37085 3.63126 0.891113 6.68973 0.891113Z" fill="#D2FF14"/>
<path d="M17.4487 16.1554H26.6032V20.3544H26.7337C28.0078 17.9392 31.1221 15.395 35.7638 15.395C45.4284 15.395 47.2122 21.7529 47.2122 30.0211V46.8629H37.6724V31.9298C37.6724 28.3678 37.6105 23.7875 32.713 23.7875C27.7463 23.7875 26.9885 27.6698 26.9885 31.6739V46.8629H17.4487V16.1554Z" fill="#D2FF14"/>
</g>
<defs>
<clipPath id="clip0_43_352">
<rect width="46.6182" height="46.6182" fill="white" transform="translate(0.902344 0.594055)"/>
</clipPath>
</defs>
</svg>
